<?xml version="1.0" encoding="utf-8"?>
<!-- Generator: Adobe Illustrator 23.0.1, SVG Export Plug-In . SVG Version: 6.00 Build 0)  -->
<svg version="1.1" id="Layer_1" xmlns="http://www.w3.org/2000/svg" xmlns:xlink="http://www.w3.org/1999/xlink" x="0px" y="0px"
	 viewBox="0 0 605 580" style="enable-background:new 0 0 605 580;" xml:space="preserve">
<style type="text/css">
	.st0{opacity:0.23;fill:#6176F9;enable-background:new    ;}
	.st1{fill:#AEC4FF;}
	.st2{fill:#152274;}
	.st3{fill:#7990CF;}
	.st4{fill:#E7DDFB;}
	.st5{fill:#90ABF5;}
	.st6{fill:#EAE8FF;}
	.st7{fill:#4FB8BC;}
	.st8{fill:#EBE1FF;}
	.st9{fill:#101B59;}
	.st10{fill:#D6D2F5;}
	.st11{fill:#F1F1F1;}
	.st12{fill:#6176F9;}
	.st13{fill:#5062CF;}
	.st14{opacity:0.84;fill:#90ABF5;enable-background:new    ;}
	.st15{fill:none;stroke:#E7DDFB;stroke-width:6;stroke-linecap:round;stroke-miterlimit:10;}
	.st16{opacity:0.76;fill:#90ABF5;enable-background:new    ;}
	.st17{fill:none;stroke:#6176F9;stroke-width:0.25;stroke-miterlimit:10;stroke-dasharray:2;}
	.st18{opacity:0.77;fill:#90ABF5;enable-background:new    ;}
	.st19{fill:#D7E4E5;}
	.st20{fill:#FAB28F;}
	.st21{fill:#5E4FFF;}
	.st22{fill:#FFB591;}
	.st23{fill:#F46464;}
	.st24{fill:#ED6161;}
	.st25{fill:#121C61;}
	.st26{fill:#E5B6DB;}
	.st27{fill:#FFFFFF;}
	.st28{opacity:9.000000e-02;fill:#FFFFFF;enable-background:new    ;}
	.st29{opacity:0.38;fill:#FFFFFF;enable-background:new    ;}
	.st30{fill:#DEB0D4;}
</style>
<g>
	<polygon class="st0" points="463,498.7 346.1,532.2 300.4,526.6 242.6,552.5 179.2,536 117.2,558.1 47.9,533.7 119,509.1 73,498.6 
		204.6,448.8 	"/>
	<g>
		<g>
			<polygon class="st1" points="336.3,530.9 346.1,532.2 346.1,323.6 336.3,322.3 			"/>
			<polygon class="st2" points="356.4,529.3 346.1,532.2 346.1,323.6 356.4,320.6 			"/>
			<polygon class="st1" points="442.9,500.3 452.6,501.6 452.6,292.9 442.9,291.6 			"/>
			<polygon class="st2" points="463,498.7 452.6,501.6 452.6,292.9 463,290 			"/>
			<polygon class="st3" points="203.7,471 213.5,472.3 213.5,263.6 203.7,262.3 			"/>
			<polygon class="st2" points="223.8,469.3 213.5,472.3 213.5,263.6 223.8,260.7 			"/>
			<polygon class="st3" points="63.2,497.3 73,498.6 73,290 63.2,288.7 			"/>
			<polygon class="st2" points="83.3,495.7 73,498.6 73,290 83.3,287 			"/>
		</g>
		<g>
			<polygon class="st1" points="346.1,323.6 63.2,285.7 63.2,296.9 346.1,336.1 			"/>
			<polygon class="st4" points="63.2,285.7 213.5,259.4 463,290 346.1,323.6 			"/>
			<polygon class="st2" points="463,290 346.1,323.6 346.1,336.1 463,301.9 			"/>
		</g>
		<g>
			<polygon class="st5" points="282,302 206.6,291.9 206.6,294.9 282,305.4 			"/>
			<polygon class="st6" points="206.6,291.9 244.6,282.7 313.2,293.1 282,302 			"/>
			<polygon class="st2" points="313.2,293.1 282,302 282,305.4 313.2,296.2 			"/>
		</g>
	</g>
	<g>
		<g>
			<path class="st7" d="M246.2,109.8c1.9,0.3,171.5,22.1,171.5,22.1v138.3l-168.4-27.1L246.2,109.8z"/>
			<path class="st5" d="M238.2,111.9c1.9,0.3,173.1,21.7,173.1,21.7V272l-173.1-25.7V111.9z"/>
			<path class="st2" d="M238.2,111.9c1.9,0.3,173.1,21.7,173.1,21.7v119.3l-173.1-25.7V111.9z"/>
			<path class="st8" d="M246.2,119.3c1.7,0.3,157.1,19.7,157.1,19.7v104.2l-157.1-23.4L246.2,119.3L246.2,119.3z"/>
			<polygon class="st9" points="411.3,272 417.6,270.2 417.6,131.9 411.3,133.6 			"/>
			<polygon class="st10" points="417.6,131.9 411.3,133.6 238.2,111.9 246.2,109.8 			"/>
			<polygon class="st5" points="294.8,272.6 294.8,254.7 339.3,261.3 339.3,280.9 339.3,280.9 317,287 271.2,279.3 			"/>
			<polygon class="st9" points="339.3,261.3 339.3,270.1 294.8,263.2 294.8,254.7 			"/>
			<polygon class="st9" points="339.3,280.9 317,287 271.2,279.3 271.2,281.5 317.1,289.2 339.3,282.8 			"/>
		</g>
		<g>
			<path class="st11" d="M381.5,145.6c-30.8-3.9-82-10.3-110.4-13.8c-7.3-0.9-13.8,4.8-13.8,12.2v57.7c0,6.1,4.4,11.2,10.5,12.1
				l110.4,16.4c7.4,1.1,14.1-4.6,14.1-12.1v-60.3C392.2,151.6,387.6,146.4,381.5,145.6z"/>
			<path class="st12" d="M392.2,161.3l-134.9-18.1c0.4-7,6.7-12.3,13.7-11.4c28.4,3.6,79.6,10,110.4,13.8c6.1,0.8,10.7,6,10.7,12.2
				L392.2,161.3L392.2,161.3z"/>
			<g>
				<circle class="st13" cx="380.8" cy="153.9" r="1.4"/>
				<circle class="st10" cx="376.5" cy="153.1" r="1.4"/>
				<circle class="st10" cx="372" cy="152.4" r="1.4"/>
			</g>
		</g>
		<g>
			<path class="st14" d="M281.7,30.8c24,3,64.9,8.1,86.7,10.9c8.5,1.1,14.8,8.3,14.8,16.8v45.4c0,10.4-9.2,18.3-19.4,16.8
				l-86.7-12.9c-8.3-1.2-14.5-8.4-14.5-16.8V47.7C262.7,37.5,271.6,29.6,281.7,30.8z"/>
			<line class="st15" x1="363.9" y1="61.3" x2="281.7" y2="51"/>
			<line class="st15" x1="363.9" y1="80.9" x2="281.7" y2="70.6"/>
			<line class="st15" x1="363.9" y1="100.6" x2="281.7" y2="90.3"/>
		</g>
		<g>
			<path class="st16" d="M111.9,45.6C143,49.5,214.9,58.5,242.9,62c6.6,0.8,11.5,6.4,11.5,13v77.5c0,8-7.1,14.1-15,12.9L108.4,146
				c-6.4-1-11.2-6.5-11.2-12.9V58.6C97.2,50.7,104.1,44.6,111.9,45.6z"/>
			<path class="st4" d="M154.5,68.6c1.2,0.2,87.5,10.3,87.5,10.3v73.2l-87.5-12.8L154.5,68.6L154.5,68.6z"/>
			<g>
				<path class="st4" d="M150.1,139.1l-42-6.2V99.6c21,2.5,42,4.9,42,4.9V139.1z"/>
				<path class="st4" d="M150.1,68.3v33.8c0,0-21-2.5-42-4.9V63.4C129.1,65.9,150.1,68.3,150.1,68.3z"/>
				<path class="st17" d="M147.7,70.8c-6.6-0.8-21.5-2.5-37.2-4.4v28.3c15.3,1.8,30.1,3.5,37.2,4.4V70.8z"/>
			</g>
			<polygon class="st12" points="136.3,111.4 136.3,129.3 116.9,117.9 			"/>
			<g>
				<path class="st12" d="M233.1,121.3c0.7,0,1.3-0.5,1.4-1.3c0.1-0.8-0.5-1.5-1.3-1.6l-31.9-4c-0.8-0.1-1.5,0.5-1.6,1.3
					c-0.1,0.8,0.5,1.5,1.3,1.6l31.9,4C233,121.3,233,121.3,233.1,121.3z"/>
				<path class="st12" d="M233.1,129c0.7,0,1.3-0.5,1.4-1.3c0.1-0.8-0.5-1.5-1.3-1.6l-31.9-4c-0.8-0.1-1.5,0.5-1.6,1.3
					c-0.1,0.8,0.5,1.5,1.3,1.6l31.9,4C233,129,233,129,233.1,129z"/>
				<path class="st12" d="M233.1,136.6c0.7,0,1.3-0.5,1.4-1.3c0.1-0.8-0.5-1.5-1.3-1.6l-31.9-4c-0.8-0.1-1.5,0.5-1.6,1.3
					c-0.1,0.8,0.5,1.5,1.3,1.6l31.9,4C233,136.6,233,136.6,233.1,136.6z"/>
				<path class="st12" d="M233.1,98.4c0.7,0,1.3-0.5,1.4-1.3c0.1-0.8-0.5-1.5-1.3-1.6l-31.9-4c-0.8-0.1-1.5,0.5-1.6,1.3
					c-0.1,0.8,0.5,1.5,1.3,1.6l31.9,4C233,98.4,233,98.4,233.1,98.4z"/>
				<path class="st12" d="M233.1,106c0.7,0,1.3-0.5,1.4-1.3c0.1-0.8-0.5-1.5-1.3-1.6l-31.9-4c-0.8-0.1-1.5,0.5-1.6,1.3
					c-0.1,0.8,0.5,1.5,1.3,1.6l31.9,4C233,106,233,106,233.1,106z"/>
				<path class="st12" d="M233.1,113.7c0.7,0,1.3-0.5,1.4-1.3c0.1-0.8-0.5-1.5-1.3-1.6l-31.9-4c-0.8-0.1-1.5,0.5-1.6,1.3
					c-0.1,0.8,0.5,1.5,1.3,1.6l31.9,4C233,113.7,233,113.7,233.1,113.7z"/>
			</g>
			<g>
				<path class="st12" d="M195.5,116.7c0.7,0,1.3-0.5,1.4-1.3c0.1-0.8-0.5-1.5-1.3-1.6l-31.9-4c-0.8-0.1-1.5,0.5-1.6,1.3
					c-0.1,0.8,0.5,1.5,1.3,1.6l31.9,4C195.3,116.7,195.4,116.7,195.5,116.7z"/>
				<path class="st12" d="M195.5,124.4c0.7,0,1.3-0.5,1.4-1.3c0.1-0.8-0.5-1.5-1.3-1.6l-31.9-4c-0.8-0.1-1.5,0.5-1.6,1.3
					c-0.1,0.8,0.5,1.5,1.3,1.6l31.9,4C195.3,124.4,195.4,124.4,195.5,124.4z"/>
				<path class="st12" d="M195.5,132c0.7,0,1.3-0.5,1.4-1.3c0.1-0.8-0.5-1.5-1.3-1.6l-31.9-4c-0.8-0.1-1.5,0.5-1.6,1.3
					c-0.1,0.8,0.5,1.5,1.3,1.6l31.9,4C195.3,132,195.4,132,195.5,132z"/>
				<path class="st12" d="M195.5,93.8c0.7,0,1.3-0.5,1.4-1.3c0.1-0.8-0.5-1.5-1.3-1.6l-31.9-4c-0.8-0.1-1.5,0.5-1.6,1.3
					c-0.1,0.8,0.5,1.5,1.3,1.6l31.9,4C195.3,93.8,195.4,93.8,195.5,93.8z"/>
				<path class="st12" d="M195.5,101.4c0.7,0,1.3-0.5,1.4-1.3c0.1-0.8-0.5-1.5-1.3-1.6l-31.9-4c-0.8-0.1-1.5,0.5-1.6,1.3
					c-0.1,0.8,0.5,1.5,1.3,1.6l31.9,4C195.3,101.4,195.4,101.4,195.5,101.4z"/>
				<path class="st12" d="M195.5,109.1c0.7,0,1.3-0.5,1.4-1.3c0.1-0.8-0.5-1.5-1.3-1.6l-31.9-4c-0.8-0.1-1.5,0.5-1.6,1.3
					c-0.1,0.8,0.5,1.5,1.3,1.6l31.9,4C195.3,109.1,195.4,109.1,195.5,109.1z"/>
			</g>
		</g>
		<g>
			<g>
				<path class="st18" d="M400.5,103.5c1.3,0.2,108.2,12.4,108.2,12.4v79.6l-108.2-15.2L400.5,103.5L400.5,103.5z"/>
				<path class="st4" d="M328,161.3c0.6,0.1,52.2,7.1,52.2,7.1v38.4l-52.2-7.3V161.3z"/>
				<path class="st4" d="M268.5,196.5c0.6,0.1,111.8,14.9,111.8,14.9v8.3l-111.8-15.2V196.5z"/>
				<path class="st4" d="M268.5,154c0.6,0.1,52.2,6,52.2,6v38.4l-52.2-7.3V154z"/>
				<g>
					<path class="st2" d="M431.5,126.1c2.8,0.3,6.4,0.7,10.3,1.1v-9.7c0.3,0.1,24.8,2.6,24.8,2.6v9.6c3.4,0.3,6.3,0.7,8.7,0.9
						c2.9,0.3,5.1,2.8,5.1,5.7V173c0,3.5-3.1,6.1-6.5,5.7l-43.8-5.9c-2.8-0.4-5-2.8-5-5.7v-35.4
						C425.1,128.4,428.1,125.7,431.5,126.1z"/>
					<path class="st19" d="M448.5,122.2c0.2,0,11.5,0.9,11.5,0.9l0,4.7l-11.5-1.2L448.5,122.2z"/>
					<circle class="st19" cx="452.8" cy="152.4" r="9.2"/>
				</g>
			</g>
			<polyline class="st17" points="448.4,187.1 448.4,198.2 376.9,186.1 			"/>
		</g>
		<line class="st17" x1="317.1" y1="113.7" x2="317.1" y2="171.9"/>
		<polyline class="st17" points="218.7,160.9 218.7,177.2 277.6,186.7 		"/>
	</g>
	<g>
		<g>
			<g>
				<path class="st20" d="M130.6,250.3c5.8-1.5,9.8,1.4,9.8,1.4s10.6,30.5,12.2,32.4c1.6,1.8,34.7-2.4,38.8-2.1
					c6.8,0,23.2-1,25.1-1.6c1.9-0.6,7,0.5,9.1,1.5c2.1,0.9,3.2,5.8,2.7,7c-0.5,1.3-2.2,0.2-2.3-0.5c-0.8,0.9-2.1,1-2.5,0.2
					c-0.4-0.8-3.6-4.4-6.9-2.8c-3.9,1.8-6.2,1.3-14,3c-2.8,0.6-5.2,1.2-7.1,1.6c-0.6,0.2-2.6,0.7-5.4,1.3c-0.1,0-0.1,0-0.1,0v0
					c-11.7,2.7-38,8.1-44.5,8.6c-8.1,0.5-25.3-40.3-25.3-40.3S124.9,251.8,130.6,250.3z"/>
				<path class="st5" d="M177,279.7c-2.2,6.1-1.3,15.9-8.8,23c-4.6,12.2-7.9,27.9-6.1,35c-8.8,2.9-13.2,3.3-13.2,3.3l-9.6-20
					l18.8-44.8l10-4.3L177,279.7z"/>
				<path class="st21" d="M184.7,273.8c0,0-2.4,17.5-21.2,17.5C162.1,283.4,178.6,269.5,184.7,273.8z"/>
				<path class="st22" d="M171.7,270.3c5.5-2.3,9.9,0,9.9,0s14.9,28.7,16.8,30.2c1.9,1.6,34-7.4,38.1-7.7c6.7-0.9,22.8-4.4,24.6-5.2
					c1.8-0.9,7-0.5,9.2,0.1c2.2,0.6,4,5.2,3.6,6.6c-0.3,1.3-2.2,0.5-2.3-0.2c-0.6,1-1.9,1.3-2.4,0.6c-0.5-0.7-4.2-3.8-7.2-1.8
					c-3.5,2.3-5.9,2.2-13.4,5c-2.6,1-4.9,1.9-6.8,2.6c-0.6,0.3-2.4,1-5.1,2.1c-0.1,0-0.1,0-0.1,0v0c-11.2,4.3-36.4,13.5-42.8,14.9
					c-7.9,1.7-30.9-36.2-30.9-36.2S166.2,272.7,171.7,270.3z"/>
				<path class="st12" d="M138.5,231.2c0,0,1.5,4.4,13.5,3.3c11.2-0.7,18.9,2.4,32.7,39.3c-9,1.6-22.6,12-21.2,17.5
					c-4.9-2-5.3-3.9-7.1,1.8c-1.8,5.7-10.4,34.8-7.5,47.9c-9.2,1-40.9,1.4-44-3.3c4.1-17.1-4.3-48.1-6.9-62.5
					c-2.6-14.5-0.8-31.3,9.4-37.9C117.5,230.6,138.5,231.2,138.5,231.2z"/>
				<g>
					<path class="st22" d="M200,169.9c4.7,7.8-0.7,25.5-7.6,30.8c-6.9,5.3-4.2,12.1-3.5,13.2c0.7,1.1-2.5,2.6-6.2,3.7
						s-11.8,13.5-15.8,11.1c-4-2.5-11.6-12-12.8-15.5c-1.2-3.5-6.2-34.1,12.5-45.7C185.2,155.8,197.9,166.4,200,169.9z"/>
					<path class="st22" d="M161.5,219.1c0,0-10.6,7.9-8.9,16.4c-9.2,2.1-18.9-3.9-18.9-3.9s16.4-31.7,19.8-42.4
						C156.8,178.5,161.5,219.1,161.5,219.1z"/>
					<path class="st23" d="M198.9,191c13.4-13.9-3.1-52.6-35.5-47.4c-32.4,5.3-32.4,36.5-43.8,48.4c-25.4,26.4-34.3,61.2-12,60.5
						c19.1-0.6,26,16.8,26,16.8s-4.6-33.1,17.6-49.7c22.2-16.5,33.2-31.3,33.2-31.3S192.9,197.3,198.9,191z"/>
					<g>
						<path class="st24" d="M195.3,184.3c0,0,2.5,2.6,5.7,4c-0.6,1-1.3,1.9-2.1,2.7c-3.2,3.3-7.1,2.3-10,0.7
							C193.2,187.1,195.3,184.3,195.3,184.3z"/>
						<path class="st24" d="M119.6,192c11-11.5,11.4-41.2,40.9-47.8c-19,10.6-20.6,33.9-30.1,43.7c-25.4,26.4-29.3,49.4-7,49.6
							c12.1,0.1,6,20.8,9.9,23.3c-1.2,9.4,0.4,8.4,0.4,8.4s-6.9-17.4-26-16.8C85.3,253.3,94.2,218.4,119.6,192z"/>
					</g>
					<path class="st22" d="M174.3,201.7c0,0-0.4-7.2-4.4-4c-4,3.2-0.9,9.9-0.9,9.9L174.3,201.7z"/>
				</g>
				<g>
					<path class="st22" d="M216.1,495.2l1.4,22.2c0,0-5.3-14.5-14.1-15.5c0.6-4.1,0-6.7,0-6.7L216.1,495.2L216.1,495.2z"/>
					<path class="st25" d="M191.5,397.8l8.1,99.8c0,0,17.3,3.1,20.6-1.6c-0.8-30.1-0.2-115.7-2-127.9c-1.8-12.2-61.9,3.5-61.9,3.5
						L191.5,397.8z"/>
					<path class="st26" d="M203.5,501.9c-3.8,0.1-7.5,5.7-8.7,10.2c4.5,0.4,21.3,19.9,25.4,37.8c2.3-4.7,0.7-23.5-2.6-32.5
						S209.5,501.7,203.5,501.9z"/>
					<path class="st12" d="M194.8,512.1c-1.9,3.4,5.4,14.1,8.7,21.4c3.3,7.3,2.9,16.9,16.7,16.4
						C219.3,544.3,210.5,513.3,194.8,512.1z"/>
				</g>
				<g>
					<path class="st22" d="M238.5,497.8l1.4,22.2c0,0-5.3-14.5-14.1-15.5c0.6-4.1,0-6.7,0-6.7L238.5,497.8L238.5,497.8z"/>
					<path class="st2" d="M104.9,337.8c-9,18.7-24.8,72.9,15.9,76c40.7,3.1,93.1-13.2,93.1-13.2l8.1,99.8c0,0,17.3,3.1,20.6-1.6
						c-0.8-30.1-0.2-115.7-2-127.9c-1.8-12.2-42.2-13.4-67.6-6.3c-2.6-9.8-10.8-26.7-10.8-26.7H104.9z"/>
					<path class="st26" d="M225.9,504.6c-3.8,0.1-7.5,5.7-8.7,10.2c4.5,0.4,21.3,19.9,25.4,37.8c2.3-4.7,0.7-23.5-2.6-32.5
						S231.9,504.4,225.9,504.6z"/>
					<path class="st12" d="M217.2,514.8c-1.9,3.4,5.4,14.1,8.7,21.4c3.3,7.3,2.9,16.9,16.7,16.4C241.7,547,232.9,516,217.2,514.8z"
						/>
				</g>
			</g>
			<path class="st27" d="M197.2,306.6c-1.8,0.5-3.7-0.4-4.4-2.1c-5.5-13.3-27.9-66.4-32.8-69.1c0,0,0,0,0,0l2.2,0.9
				c6.7,3.4,13.2,12.9,22.5,37.6c0,0-0.1,0.7-0.4,1.7c4.4,8.3,12.6,23.9,14,25c1.9,1.6,34-7.4,38.1-7.7c6.7-0.9,22.8-4.4,24.6-5.2
				c1.2-0.6,4.2-0.6,6.7-0.3L197.2,306.6z"/>
			<path class="st28" d="M198.9,191L198.9,191c-1.7,4.1-4,7.7-6.5,9.6c-6.9,5.3-4.2,12.1-3.5,13.2c0.3,0.4,0,0.9-0.7,1.4
				c-5-3.5-4.1-9.4,3.2-19.7c15.8-22.2-8.5-49.3-19.2-52.2C198.7,145.6,211,178.5,198.9,191z"/>
			<path class="st29" d="M192.9,193.2c12.6-21.7-10.3-47.1-20.7-49.9c0,0,0,0,0,0c1.4,0.1,2.8,0.4,4.2,0.7c0.2,0,0.5,0.1,0.7,0.1
				c0.5,0.1,1,0.3,1.5,0.4c0.3,0.1,0.6,0.2,0.9,0.3c0.5,0.2,0.9,0.3,1.4,0.5c0.3,0.1,0.6,0.2,0.9,0.3c0.4,0.2,0.9,0.4,1.3,0.6
				c0.3,0.1,0.6,0.3,0.9,0.4c0.4,0.2,0.8,0.4,1.2,0.7c0.3,0.2,0.6,0.3,0.8,0.5c0.4,0.2,0.8,0.5,1.2,0.7c0.3,0.2,0.5,0.3,0.8,0.5
				c0.4,0.3,0.8,0.5,1.1,0.8c0.2,0.2,0.5,0.4,0.7,0.6c0.4,0.3,0.7,0.6,1.1,0.9c0.2,0.2,0.4,0.4,0.6,0.6c0.4,0.3,0.7,0.7,1.1,1
				c0.1,0.1,0.3,0.3,0.4,0.4c0.8,0.8,1.6,1.7,2.4,2.6c0.1,0.1,0.1,0.1,0.2,0.2c0.3,0.4,0.6,0.7,0.8,1.1c0.2,0.2,0.4,0.5,0.5,0.7
				c0.2,0.3,0.5,0.7,0.7,1.1c0.2,0.3,0.4,0.6,0.5,0.8c0.2,0.3,0.4,0.7,0.6,1c0.2,0.3,0.3,0.6,0.5,0.9c0.2,0.3,0.4,0.7,0.5,1
				c0.2,0.3,0.3,0.6,0.5,0.9c0.2,0.3,0.3,0.7,0.5,1c0.1,0.3,0.3,0.7,0.4,1c0.1,0.3,0.3,0.7,0.4,1c0.1,0.3,0.2,0.7,0.4,1
				c0.1,0.3,0.2,0.7,0.3,1c0.1,0.4,0.2,0.7,0.3,1.1c0.1,0.3,0.2,0.6,0.2,0.9c0.1,0.4,0.2,0.8,0.3,1.3c0,0.3,0.1,0.5,0.2,0.8
				c0.1,0.7,0.2,1.3,0.3,2c0,0.2,0,0.4,0,0.6c0,0.5,0.1,0.9,0.1,1.4c0,0.3,0,0.5,0,0.8c0,0.4,0,0.8,0,1.2c0,0.3,0,0.5-0.1,0.8
				c0,0.4-0.1,0.7-0.1,1.1c0,0.3-0.1,0.5-0.1,0.8c-0.1,0.4-0.1,0.7-0.2,1.1c-0.1,0.3-0.1,0.5-0.2,0.8c-0.1,0.3-0.2,0.7-0.3,1
				c-0.1,0.2-0.1,0.5-0.2,0.7c-0.1,0.3-0.2,0.6-0.4,1c-0.1,0.2-0.2,0.5-0.3,0.7c-0.1,0.3-0.3,0.6-0.5,0.9c-0.1,0.2-0.2,0.4-0.3,0.6
				c-0.2,0.3-0.4,0.6-0.6,1c-0.1,0.2-0.2,0.3-0.3,0.5c-0.3,0.5-0.7,0.9-1.1,1.3C197,193,194.9,193.4,192.9,193.2z"/>
		</g>
		<g>
			<g>
				<polygon class="st2" points="133.2,432.2 120.8,556.4 117.2,558.1 129,430.4 				"/>
				<polygon class="st4" points="129,430.4 123.8,430.4 110.2,555.1 117.2,558.1 				"/>
				<polygon class="st2" points="93.1,422.8 60.4,536 53.8,536 89.8,422.8 				"/>
				<path class="st4" d="M89.8,422.8c0,0-7.3-4-7.6-1.6c-0.3,2.3-34.3,112.5-34.3,112.5l5.9,2.3L89.8,422.8z"/>
				<polygon class="st4" points="156.4,427.7 173.6,536 179.2,536 160.4,426.1 				"/>
				<polygon class="st2" points="160.4,426.1 164.8,426.1 184.1,533.3 179.2,536 				"/>
				<polygon class="st2" points="121.1,426.1 107.6,518.5 102,521.8 117.2,426.1 				"/>
				<polygon class="st4" points="117.2,426.1 111.5,422.8 95.7,518.8 102,521.8 				"/>
			</g>
			<path class="st26" d="M200.6,415.3c4.6-2,3.3-8.8-1.7-9c-27.9-1.4-88.6,8.4-84.9-57.9c3.8-68.4-9.7-69.6-38.2-71.8
				c-43.2-3.3-57.6,122.5,12.5,150.7C131.3,444.6,176.7,425.6,200.6,415.3z"/>
			<path class="st30" d="M75.8,276.6c0.4,0,0.9,0.1,1.3,0.1C50.4,304.4,50,395.9,108.5,419.4c31.5,12.7,64.3,5.9,88.9-2.7
				c-24.6,10.5-67.9,27.2-109.1,10.6C18.3,399.1,32.7,273.2,75.8,276.6z"/>
		</g>
	</g>
</g>
</svg>
