<svg xmlns="http://www.w3.org/2000/svg" xmlns:xlink="http://www.w3.org/1999/xlink" id="Слой_1" x="0" y="0" version="1.1" viewBox="0 0 130 130" xml:space="preserve" style="enable-background:new 0 0 130 130"><style type="text/css">.st0{fill:#86aac0}.st1{fill:#fff}</style><rect width="130" height="130" y=".1" class="st0"/><path d="M39.4,92.1h48.8c2.5,0,4.4-2,4.4-4.4V61H35v26.6C35,90.1,36.9,92.1,39.4,92.1z M88.2,47.7h-1.1v-1.1	c0-0.6-0.5-1.1-1.1-1.1h-4.4c-0.6,0-1.1,0.5-1.1,1.1v1.1h-3.9v-4.4c0-2.4-2-4.4-4.4-4.4H55.5c-2.4,0-4.4,2-4.4,4.4v4.4h-3.9v-1.1	c0-0.6-0.5-1.1-1.1-1.1h-4.4c-0.6,0-1.1,0.5-1.1,1.1v1.1h-1.1c-2.5,0-4.4,2-4.4,4.4v5.5h57.7v-5.5C92.7,49.7,90.7,47.7,88.2,47.7z M72.7,47.7H54.9v-3.9c0-0.6,0.5-1.1,1.1-1.1h15.5c0.6,0,1.1,0.5,1.1,1.1V47.7z" class="st1"/></svg>